<?xml version="1.0" encoding="UTF-8" standalone="no" ?>
<!DOCTYPE svg PUBLIC "-//W3C//DTD SVG 1.1//EN" "http://www.w3.org/Graphics/SVG/1.1/DTD/svg11.dtd">
<svg xmlns="http://www.w3.org/2000/svg" xmlns:xlink="http://www.w3.org/1999/xlink" version="1.1" width="60" height="60" viewBox="0 0 60 60" xml:space="preserve">
<desc>Created with Fabric.js 5.3.0</desc>
<defs>
</defs>
<g transform="matrix(4.3935508831 0 0 4.3935508313 30 30)" id="otaTmyCnH6mVwIFyjadDC"  >
<linearGradient id="SVGID_64" gradientUnits="userSpaceOnUse" gradientTransform="matrix(1 0 0 1 -6.8281899535 -6.8281900339)"  x1="6.82818995345346" y1="0" x2="6.82818995345346" y2="13.65638006789993">
<stop offset="0%" style="stop-color:#FFFFFF;stop-opacity: 1"/>
<stop offset="100%" style="stop-color:#F59E0B;stop-opacity: 1"/>
</linearGradient>
<path style="stroke: rgb(123,148,228); stroke-width: 0; stroke-dasharray: none; stroke-linecap: butt; stroke-dashoffset: 0; stroke-linejoin: miter; stroke-miterlimit: 4; fill: url(#SVGID_64); fill-rule: nonzero; opacity: 1;"  transform=" translate(0, 0)" d="M -6.82819 -5.36318 C -6.82819 -6.17228 -6.172280000000001 -6.828189999999999 -5.36318 -6.828189999999999 L 5.36318 -6.828189999999999 L 5.36318 -6.828189999999999 C 6.17228 -6.828189999999999 6.828189999999999 -6.172279999999999 6.828189999999999 -5.36318 L 6.828189999999999 5.36318 L 6.828189999999999 5.36318 C 6.828189999999999 6.17228 6.172279999999999 6.828189999999999 5.36318 6.828189999999999 L -5.36318 6.828189999999999 L -5.36318 6.828189999999999 C -6.17228 6.828189999999999 -6.828189999999999 6.172279999999999 -6.828189999999999 5.36318 z" stroke-linecap="round" />
</g>
<g transform="matrix(4.3935508831 0 0 4.3935508313 30 29.9999999999)" id="WVvK9oznDLWl_v7UdVOBg"  >
<radialGradient id="SVGID_226" gradientUnits="userSpaceOnUse" gradientTransform="matrix(1 0 0 1 -6.8281899535 -6.8281900339)"  cx="6.828189999999999" cy="6.828189999999999" r="8.704301292936519" fx="6.828189999999999" fy="6.828189999999999">
<stop offset="0%" style="stop-color:#F59E0B;stop-opacity: 1"/>
<stop offset="100%" style="stop-color:#FDE047;stop-opacity: 0.5019607843137255"/>
</radialGradient>
<path style="stroke: rgb(123,148,228); stroke-width: 0; stroke-dasharray: none; stroke-linecap: butt; stroke-dashoffset: 0; stroke-linejoin: miter; stroke-miterlimit: 4; fill: url(#SVGID_226); fill-rule: nonzero; opacity: 0.65;"  transform=" translate(0, 0)" d="M -6.82819 -5.36318 C -6.82819 -5.75173 -6.67384 -6.124359999999999 -6.3991 -6.3991 C -6.124359999999999 -6.67384 -5.75173 -6.82819 -5.36318 -6.82819 L 5.36318 -6.82819 L 5.36318 -6.82819 C 5.75173 -6.82819 6.124359999999999 -6.67384 6.3991 -6.3991 C 6.67384 -6.124359999999999 6.82819 -5.75173 6.82819 -5.36318 L 6.82819 5.36318 L 6.82819 5.36318 C 6.82819 6.17228 6.172280000000001 6.828189999999999 5.36318 6.828189999999999 L -5.36318 6.828189999999999 L -5.36318 6.828189999999999 C -6.17228 6.828189999999999 -6.828189999999999 6.172279999999999 -6.828189999999999 5.36318 z" stroke-linecap="round" />
</g>
<g transform="matrix(1 0 0 1 30 37.4028759571)" id="TMGG2mhIe5fNGNtgZ6bJ0"  >
<path style="stroke:white;stroke-width: 0; stroke-dasharray: none; stroke-linecap: butt; stroke-dashoffset: 0; stroke-linejoin: miter; stroke-miterlimit: 4; stroke: white;fill-rule: nonzero; opacity: 1;filter: url(#SVGID_81);"  transform=" translate(0, 0)" d="M 1.63529 -22.54119 C -18.49004 -23.21982 -15.62081 -1.3920899999999996 -20.3917 -1.5538200000000018 C -25.16259 -1.7155500000000017 -23.89488 -10.154900000000001 -29.95957 -10.559210000000002 C -29.95957 -10.559210000000002 -29.95957 7.32485 -29.95957 16.13342 L -29.95957 16.13342 C -29.95957 19.6809 -27.08377 22.5567 -23.53629 22.5567 L 23.63333 22.5567 L 23.63333 22.5567 C 27.12722 22.5567 29.959580000000003 19.724339999999998 29.959580000000003 16.230449999999998 C 29.959580000000003 8.804149999999996 29.959580000000003 -6.2734900000000025 29.959580000000003 -6.2734900000000025 C 24.127370000000003 -5.667020000000003 26.602240000000002 3.9058999999999973 21.35628 3.703739999999998 C 16.11032 3.501579999999998 13.396450000000002 -6.763450000000002 8.524490000000002 -8.764800000000003 C 5.337550000000002 -10.073960000000003 2.769490000000002 -10.391820000000003 0.00001000000000139778 -8.764800000000003 C -2.7694699999999988 -7.137780000000003 -2.2116799999999985 -1.9624600000000028 -2.2116799999999985 -1.9624600000000028 C -2.2116799999999985 -1.9624600000000028 -1.4149499999999984 -5.065090000000003 0.5742600000000015 -5.837070000000002 C 2.5634700000000015 -6.6090500000000025 6.254680000000001 -5.882070000000002 7.421120000000002 -4.553810000000002 C 9.381650000000002 -2.321290000000002 8.630650000000003 3.806779999999998 4.991970000000002 5.837899999999998 C 1.353290000000002 7.869029999999998 -5.409279999999997 7.121469999999998 -8.267199999999997 2.6800099999999976 C -11.125119999999997 -1.7614500000000026 -9.955649999999997 -10.657600000000002 -4.253469999999997 -15.770140000000003 C 1.4487100000000028 -20.882680000000004 11.313720000000004 -16.328800000000005 11.313720000000004 -16.328800000000005 C 11.313720000000004 -16.328800000000005 8.124510000000004 -22.783770000000004 1.635290000000003 -22.541180000000004 z" stroke-linecap="round" />
<filter id="SVGID_81" y="-22.21663701%" height="144.43327402%" x="-21.66891588%" width="143.33783176%" >
	<feGaussianBlur in="SourceAlpha" stdDeviation="0.5"></feGaussianBlur>
	<feOffset dx="0" dy="0" result="oBlur" ></feOffset>
	<feFlood flood-color="rgb(255,255,255)" flood-opacity="1"/>
	<feComposite in2="oBlur" operator="in" />
	<feMerge>
		<feMergeNode></feMergeNode>
		<feMergeNode in="SourceGraphic"></feMergeNode>
	</feMerge>
</filter>
<path style="stroke: rgb(0,0,0); stroke-width: 0; stroke-dasharray: none; stroke-linecap: butt; stroke-dashoffset: 0; stroke-linejoin: miter; stroke-miterlimit: 4; fill: rgb(56,189,248); fill-rule: nonzero; opacity: 1;"  transform=" translate(0, 0)" d="M 1.63529 -22.54119 C -18.49004 -23.21982 -15.62081 -1.3920899999999996 -20.3917 -1.5538200000000018 C -25.16259 -1.7155500000000017 -23.89488 -10.154900000000001 -29.95957 -10.559210000000002 C -29.95957 -10.559210000000002 -29.95957 7.32485 -29.95957 16.13342 L -29.95957 16.13342 C -29.95957 19.6809 -27.08377 22.5567 -23.53629 22.5567 L 23.63333 22.5567 L 23.63333 22.5567 C 27.12722 22.5567 29.959580000000003 19.724339999999998 29.959580000000003 16.230449999999998 C 29.959580000000003 8.804149999999996 29.959580000000003 -6.2734900000000025 29.959580000000003 -6.2734900000000025 C 24.127370000000003 -5.667020000000003 26.602240000000002 3.9058999999999973 21.35628 3.703739999999998 C 16.11032 3.501579999999998 13.396450000000002 -6.763450000000002 8.524490000000002 -8.764800000000003 C 5.337550000000002 -10.073960000000003 2.769490000000002 -10.391820000000003 0.00001000000000139778 -8.764800000000003 C -2.7694699999999988 -7.137780000000003 -2.2116799999999985 -1.9624600000000028 -2.2116799999999985 -1.9624600000000028 C -2.2116799999999985 -1.9624600000000028 -1.4149499999999984 -5.065090000000003 0.5742600000000015 -5.837070000000002 C 2.5634700000000015 -6.6090500000000025 6.254680000000001 -5.882070000000002 7.421120000000002 -4.553810000000002 C 9.381650000000002 -2.321290000000002 8.630650000000003 3.806779999999998 4.991970000000002 5.837899999999998 C 1.353290000000002 7.869029999999998 -5.409279999999997 7.121469999999998 -8.267199999999997 2.6800099999999976 C -11.125119999999997 -1.7614500000000026 -9.955649999999997 -10.657600000000002 -4.253469999999997 -15.770140000000003 C 1.4487100000000028 -20.882680000000004 11.313720000000004 -16.328800000000005 11.313720000000004 -16.328800000000005 C 11.313720000000004 -16.328800000000005 8.124510000000004 -22.783770000000004 1.635290000000003 -22.541180000000004 z" stroke-linecap="round" />
</g>
<g transform="matrix(1 0 0 1 0.0404312668 23.0053908356)" id="7CLeKpjW95PZVmtzMGnEe"  >
<path style="stroke: rgb(0,0,0); stroke-width: 1; stroke-dasharray: none; stroke-linecap: butt; stroke-dashoffset: 0; stroke-linejoin: miter; stroke-miterlimit: 4; fill: rgb(255,255,255); fill-opacity: 0; fill-rule: nonzero; opacity: 1;"  transform=" translate(0, 0)" d="M 0 0" stroke-linecap="round" />
</g>
</svg>